<svg xmlns="http://www.w3.org/2000/svg" xmlns:xlink="http://www.w3.org/1999/xlink" version="1.1" width="256" height="256" viewBox="0 0 256 256" xml:space="preserve">

<defs>
</defs>
<g style="stroke: none; stroke-width: 0; stroke-dasharray: none; stroke-linecap: butt; stroke-linejoin: miter; stroke-miterlimit: 10; fill: none; fill-rule: nonzero; opacity: 1;" transform="translate(1.4065934065934016 1.4065934065934016) scale(2.81 2.81)" >
	<path d="M 2.246 13.443 c -0.745 0 -1.351 -0.654 -1.231 -1.388 c 0.664 -4.065 4.199 -7.167 8.46 -7.167 h 6.201 l 6.621 8.554 H 2.246 z" style="stroke: none; stroke-width: 1; stroke-dasharray: none; stroke-linecap: butt; stroke-linejoin: miter; stroke-miterlimit: 10; fill: rgb(67,138,232); fill-rule: nonzero; opacity: 1;" transform=" matrix(1 0 0 1 0 0) " stroke-linecap="round" />
	<path d="M 71.941 76.557 V 59.988 V 13.443 c 0 -4.724 -3.838 -8.554 -8.572 -8.554 h 0 h 0 H 9.475 h 0 h 0 c 4.734 0 8.572 3.83 8.572 8.554 v 46.544 v 16.569 c 0 4.724 3.838 8.554 8.572 8.554 h 0 L 71.941 76.557 z" style="stroke: none; stroke-width: 1; stroke-dasharray: none; stroke-linecap: butt; stroke-linejoin: miter; stroke-miterlimit: 10; fill: rgb(128,180,251); fill-rule: nonzero; opacity: 1;" transform=" matrix(1 0 0 1 0 0) " stroke-linecap="round" />
	<path d="M 71.941 76.557 H 36.649 c -0.8 0 -1.441 0.6 -1.57 1.388 c -0.664 4.065 -4.199 7.167 -8.46 7.167 h 53.894 h 0 c 4.294 0 7.851 -3.151 8.475 -7.262 c 0.104 -0.684 -0.456 -1.292 -1.149 -1.292 L 71.941 76.557" style="stroke: none; stroke-width: 1; stroke-dasharray: none; stroke-linecap: butt; stroke-linejoin: miter; stroke-miterlimit: 10; fill: rgb(67,138,232); fill-rule: nonzero; opacity: 1;" transform=" matrix(1 0 0 1 0 0) " stroke-linecap="round" />
	<path d="M 18.109 60.987 c -0.552 0 -1 -0.447 -1 -1 V 14.443 H 1 c -0.552 0 -1 -0.448 -1 -1 c 0 -5.268 4.286 -9.554 9.554 -9.554 c 5.269 0 9.555 4.286 9.555 9.554 v 46.544 C 19.109 60.54 18.661 60.987 18.109 60.987 z M 2.066 12.443 h 14.977 c -0.491 -3.694 -3.662 -6.554 -7.489 -6.554 S 2.557 8.749 2.066 12.443 z" style="stroke: none; stroke-width: 1; stroke-dasharray: none; stroke-linecap: butt; stroke-linejoin: miter; stroke-miterlimit: 10; fill: rgb(0,0,0); fill-rule: nonzero; opacity: 1;" transform=" matrix(1 0 0 1 0 0) " stroke-linecap="round" />
	<path d="M 71.892 60.987 c -0.553 0 -1 -0.447 -1 -1 V 13.443 c 0 -4.166 -3.389 -7.554 -7.555 -7.554 c -0.553 0 -1 -0.448 -1 -1 s 0.447 -1 1 -1 c 5.269 0 9.555 4.286 9.555 9.554 v 46.544 C 72.892 60.54 72.444 60.987 71.892 60.987 z" style="stroke: none; stroke-width: 1; stroke-dasharray: none; stroke-linecap: butt; stroke-linejoin: miter; stroke-miterlimit: 10; fill: rgb(0,0,0); fill-rule: nonzero; opacity: 1;" transform=" matrix(1 0 0 1 0 0) " stroke-linecap="round" />
	<path d="M 63.337 5.889 H 9.554 c -0.552 0 -1 -0.448 -1 -1 s 0.448 -1 1 -1 h 53.783 c 0.553 0 1 0.448 1 1 S 63.89 5.889 63.337 5.889 z" style="stroke: none; stroke-width: 1; stroke-dasharray: none; stroke-linecap: butt; stroke-linejoin: miter; stroke-miterlimit: 10; fill: rgb(0,0,0); fill-rule: nonzero; opacity: 1;" transform=" matrix(1 0 0 1 0 0) " stroke-linecap="round" />
	<path d="M 80.445 86.111 c -0.553 0 -1 -0.447 -1 -1 s 0.447 -1 1 -1 c 3.827 0 6.998 -2.86 7.489 -6.555 H 71.892 c -0.553 0 -1 -0.447 -1 -1 s 0.447 -1 1 -1 H 89 c 0.553 0 1 0.447 1 1 C 90 81.825 85.714 86.111 80.445 86.111 z" style="stroke: none; stroke-width: 1; stroke-dasharray: none; stroke-linecap: butt; stroke-linejoin: miter; stroke-miterlimit: 10; fill: rgb(0,0,0); fill-rule: nonzero; opacity: 1;" transform=" matrix(1 0 0 1 0 0) " stroke-linecap="round" />
	<path d="M 71.892 77.557 c -0.553 0 -1 -0.447 -1 -1 V 59.987 c 0 -0.553 0.447 -1 1 -1 s 1 0.447 1 1 v 16.569 C 72.892 77.109 72.444 77.557 71.892 77.557 z" style="stroke: none; stroke-width: 1; stroke-dasharray: none; stroke-linecap: butt; stroke-linejoin: miter; stroke-miterlimit: 10; fill: rgb(0,0,0); fill-rule: nonzero; opacity: 1;" transform=" matrix(1 0 0 1 0 0) " stroke-linecap="round" />
	<path d="M 26.663 86.111 c -5.268 0 -9.554 -4.286 -9.554 -9.555 V 59.987 c 0 -0.553 0.448 -1 1 -1 s 1 0.447 1 1 v 16.569 c 0 4.166 3.389 7.555 7.554 7.555 c 0.552 0 1 0.447 1 1 S 27.215 86.111 26.663 86.111 z" style="stroke: none; stroke-width: 1; stroke-dasharray: none; stroke-linecap: butt; stroke-linejoin: miter; stroke-miterlimit: 10; fill: rgb(0,0,0); fill-rule: nonzero; opacity: 1;" transform=" matrix(1 0 0 1 0 0) " stroke-linecap="round" />
	<path d="M 80.445 86.111 H 26.663 c -0.552 0 -1 -0.447 -1 -1 s 0.448 -1 1 -1 h 53.782 c 0.553 0 1 0.447 1 1 S 80.998 86.111 80.445 86.111 z" style="stroke: none; stroke-width: 1; stroke-dasharray: none; stroke-linecap: butt; stroke-linejoin: miter; stroke-miterlimit: 10; fill: rgb(0,0,0); fill-rule: nonzero; opacity: 1;" transform=" matrix(1 0 0 1 0 0) " stroke-linecap="round" />
	<path d="M 26.663 86.111 c -0.552 0 -1 -0.447 -1 -1 s 0.448 -1 1 -1 c 4.166 0 7.554 -3.389 7.554 -7.555 c 0 -0.553 0.448 -1 1 -1 h 36.674 c 0.553 0 1 0.447 1 1 s -0.447 1 -1 1 H 36.166 C 35.664 82.357 31.594 86.111 26.663 86.111 z" style="stroke: none; stroke-width: 1; stroke-dasharray: none; stroke-linecap: butt; stroke-linejoin: miter; stroke-miterlimit: 10; fill: rgb(0,0,0); fill-rule: nonzero; opacity: 1;" transform=" matrix(1 0 0 1 0 0) " stroke-linecap="round" />
	<path d="M 61.196 53.957 H 29.547 c -0.552 0 -1 -0.447 -1 -1 s 0.448 -1 1 -1 h 31.649 c 0.553 0 1 0.447 1 1 S 61.749 53.957 61.196 53.957 z" style="stroke: none; stroke-width: 1; stroke-dasharray: none; stroke-linecap: butt; stroke-linejoin: miter; stroke-miterlimit: 10; fill: rgb(0,0,0); fill-rule: nonzero; opacity: 1;" transform=" matrix(1 0 0 1 0 0) " stroke-linecap="round" />
	<path d="M 61.196 66.368 H 29.547 c -0.552 0 -1 -0.447 -1 -1 s 0.448 -1 1 -1 h 31.649 c 0.553 0 1 0.447 1 1 S 61.749 66.368 61.196 66.368 z" style="stroke: none; stroke-width: 1; stroke-dasharray: none; stroke-linecap: butt; stroke-linejoin: miter; stroke-miterlimit: 10; fill: rgb(0,0,0); fill-rule: nonzero; opacity: 1;" transform=" matrix(1 0 0 1 0 0) " stroke-linecap="round" />
	<path d="M 34.975 21.819 c 3.969 -0.572 7.477 -1.994 10.396 -4.5 c 2.919 2.506 6.427 3.928 10.396 4.5 V 32.87 c 0 5.596 -4.338 10.358 -10.396 12.13 c -6.058 -1.771 -10.396 -6.533 -10.396 -12.13 L 34.975 21.819 z" style="stroke: none; stroke-width: 1; stroke-dasharray: none; stroke-linecap: butt; stroke-linejoin: miter; stroke-miterlimit: 10; fill: rgb(255,194,80); fill-rule: nonzero; opacity: 1;" transform=" matrix(1 0 0 1 0 0) " stroke-linecap="round" />
	<path d="M 45.372 46 c -0.095 0 -0.189 -0.013 -0.281 -0.04 c -6.648 -1.944 -11.115 -7.205 -11.115 -13.09 V 21.819 c 0 -0.497 0.365 -0.919 0.857 -0.99 c 3.974 -0.573 7.208 -1.969 9.887 -4.269 c 0.375 -0.321 0.927 -0.321 1.303 0 c 2.678 2.3 5.912 3.696 9.887 4.269 c 0.492 0.071 0.857 0.493 0.857 0.99 V 32.87 c 0 5.885 -4.467 11.146 -11.115 13.09 C 45.561 45.987 45.466 46 45.372 46 z M 35.976 22.671 V 32.87 c 0 4.908 3.763 9.332 9.396 11.085 c 5.632 -1.754 9.396 -6.178 9.396 -11.085 V 22.671 c -3.627 -0.645 -6.78 -2.007 -9.396 -4.058 C 42.756 20.664 39.602 22.026 35.976 22.671 z" style="stroke: none; stroke-width: 1; stroke-dasharray: none; stroke-linecap: butt; stroke-linejoin: miter; stroke-miterlimit: 10; fill: rgb(0,0,0); fill-rule: nonzero; opacity: 1;" transform=" matrix(1 0 0 1 0 0) " stroke-linecap="round" />
	<path d="M 44.096 35.738 c -0.003 0 -0.005 0 -0.008 0 c -0.291 -0.002 -0.566 -0.131 -0.754 -0.353 l -3.037 -3.578 c -0.357 -0.421 -0.306 -1.052 0.115 -1.409 s 1.053 -0.306 1.409 0.115 l 2.288 2.695 l 5.605 -6.388 c 0.366 -0.415 0.997 -0.457 1.411 -0.092 c 0.415 0.364 0.457 0.996 0.093 1.411 l -6.37 7.259 C 44.658 35.614 44.384 35.738 44.096 35.738 z" style="stroke: none; stroke-width: 1; stroke-dasharray: none; stroke-linecap: butt; stroke-linejoin: miter; stroke-miterlimit: 10; fill: rgb(0,0,0); fill-rule: nonzero; opacity: 1;" transform=" matrix(1 0 0 1 0 0) " stroke-linecap="round" />
</g>
</svg>